<?xml version="1.0" standalone="no"?>
<!DOCTYPE svg PUBLIC "-//W3C//DTD SVG 20010904//EN"
 "http://www.w3.org/TR/2001/REC-SVG-20010904/DTD/svg10.dtd">
<svg version="1.0" xmlns="http://www.w3.org/2000/svg"
 width="639.000000pt" height="639.000000pt" viewBox="0 0 639.000000 639.000000"
 preserveAspectRatio="xMidYMid meet">
<metadata>
Created by potrace 1.14, written by Peter Selinger 2001-2017
</metadata>
<g transform="translate(0.000000,639.000000) scale(0.100000,-0.100000)"
fill="#000000" stroke="none">
<path d="M3100 4765 c-78 -19 -115 -23 -205 -19 -60 2 -121 5 -135 7 -14 3
-34 0 -45 -6 -25 -12 -312 -295 -327 -321 -5 -10 -12 -39 -14 -65 -2 -26 -12
-57 -24 -71 -61 -75 -69 -95 -93 -230 -14 -74 -30 -153 -36 -175 -19 -72 -14
-129 19 -193 17 -33 30 -68 30 -78 0 -11 -23 -51 -51 -89 -28 -39 -57 -85 -64
-102 -8 -18 -29 -54 -47 -80 -47 -69 -65 -107 -66 -143 -1 -27 6 -35 53 -66
38 -24 66 -34 94 -34 44 0 50 -9 49 -75 0 -27 -6 -44 -18 -52 -16 -11 -17 -18
-8 -46 6 -17 22 -41 35 -52 23 -19 24 -22 9 -34 -25 -21 -19 -48 19 -85 31
-31 34 -37 25 -62 -25 -64 -30 -113 -18 -159 11 -39 19 -49 63 -74 82 -46 172
-63 307 -57 65 3 126 11 136 17 11 7 26 9 35 6 14 -5 67 -88 117 -185 24 -46
96 -108 287 -247 75 -54 119 -95 139 -125 15 -25 31 -47 35 -50 54 -40 160
-140 174 -163 12 -20 53 -26 215 -32 110 -4 132 -2 180 16 73 28 157 80 199
123 19 19 56 43 83 53 40 14 53 24 64 52 8 19 11 37 7 41 -131 104 -244 215
-311 303 -33 43 -56 101 -67 167 0 3 -9 37 -19 76 -15 59 -17 103 -13 275 2
112 6 211 9 219 3 8 7 22 10 30 3 8 30 98 59 200 47 162 90 268 130 316 5 6
22 43 38 82 25 61 30 89 36 205 7 132 6 144 -30 312 -1 6 -16 41 -34 79 -18
39 -35 90 -38 114 -3 25 -17 63 -31 86 -25 41 -167 162 -228 195 -16 9 -60 35
-99 58 -38 23 -112 58 -164 79 -52 21 -115 47 -139 59 -64 31 -204 31 -332 0z"/>
</g>
</svg>
